<?xml version="1.0" standalone="no"?>
<!DOCTYPE svg PUBLIC "-//W3C//DTD SVG 20010904//EN"
 "http://www.w3.org/TR/2001/REC-SVG-20010904/DTD/svg10.dtd">
<svg version="1.0" xmlns="http://www.w3.org/2000/svg"
 width="200.000000pt" height="200.000000pt" viewBox="0 0 1280.000000 1023.000000"
 preserveAspectRatio="xMidYMid meet">
<g transform="translate(0.000000,1023.000000) scale(0.100000,-0.100000)"
fill="#fff" stroke="none">
<path d="M6145 8029 c-976 -91 -1830 -645 -2303 -1494 -560 -1004 -473 -2256
221 -3180 177 -235 439 -488 671 -649 369 -255 787 -419 1256 -493 165 -26
655 -26 820 0 919 144 1661 648 2125 1443 279 478 423 1084 386 1623 -20 291
-59 496 -145 756 -321 969 -1121 1698 -2116 1929 -287 67 -633 91 -915 65z"/>
</g>
</svg>
